<svg xmlns="http://www.w3.org/2000/svg" viewBox="0 0 75.13 65.23"><defs><style>.cls-1,.cls-2{fill:none;stroke-miterlimit:10;stroke-width:2px;}.cls-1{stroke:#fff;}.cls-2{stroke:#f15d2f;}</style></defs><g id="Calque_2" data-name="Calque 2"><g id="Calque_1-2" data-name="Calque 1"><g id="Groupe_13" data-name="Groupe 13"><rect id="Rectangle_29" data-name="Rectangle 29" class="cls-1" x="1" y="1" width="73.13" height="63.23" rx="3.02"/><line id="Ligne_1" data-name="Ligne 1" class="cls-1" x1="74.48" y1="16.6" x2="1.34" y2="16.6"/><circle id="Ellipse_6" data-name="Ellipse 6" class="cls-2" cx="46.2" cy="8.7" r="2.8"/><circle id="Ellipse_7" data-name="Ellipse 7" class="cls-2" cx="56.11" cy="8.7" r="2.8"/><circle id="Ellipse_8" data-name="Ellipse 8" class="cls-2" cx="66.02" cy="8.7" r="2.8"/><path id="Tracé_10" data-name="Tracé 10" class="cls-2" d="M48.45,32.19l-1,.41a1.89,1.89,0,0,1-2.06-.46h0A1.91,1.91,0,0,1,45,30.06l.45-1a1.91,1.91,0,0,0-1-2.5l-1.93-.84a1.9,1.9,0,0,0-2.5,1l-.44,1a1.89,1.89,0,0,1-1.77,1.13h0A1.89,1.89,0,0,1,36,27.64l-.4-1a1.91,1.91,0,0,0-2.47-1.08l-1.95.77a1.9,1.9,0,0,0-1.07,2.47h0l.4,1a1.9,1.9,0,0,1-.45,2.06l0,0a1.91,1.91,0,0,1-2.07.38l-1-.45a1.9,1.9,0,0,0-2.5,1l-.84,1.92a1.9,1.9,0,0,0,1,2.5l1,.45a1.86,1.86,0,0,1,1.14,1.77v0a1.89,1.89,0,0,1-1.2,1.74l-1,.41a1.89,1.89,0,0,0-1.07,2.46l.77,2a1.9,1.9,0,0,0,2.46,1.07l1-.41a1.89,1.89,0,0,1,2.06.46l0,0a1.91,1.91,0,0,1,.38,2.07l-.44,1a1.9,1.9,0,0,0,1,2.5l1.93.84a1.9,1.9,0,0,0,2.5-1h0l.44-1a1.89,1.89,0,0,1,1.78-1.13h0a1.89,1.89,0,0,1,1.74,1.19l.41,1A1.9,1.9,0,0,0,42,53.76L44,53A1.9,1.9,0,0,0,45,50.53l-.41-1a1.9,1.9,0,0,1,.45-2.06l0,0A1.89,1.89,0,0,1,47.16,47l1,.44a1.9,1.9,0,0,0,2.5-1h0l.84-1.92a1.9,1.9,0,0,0-1-2.5l-1-.45a1.89,1.89,0,0,1-1.14-1.77v0a1.9,1.9,0,0,1,1.2-1.74l1-.41a1.9,1.9,0,0,0,1.08-2.46h0l-.77-2A1.92,1.92,0,0,0,48.45,32.19Zm-8.72,13a5.9,5.9,0,0,1-7.65-3.32h0a5.89,5.89,0,0,1,3.32-7.65h0a5.89,5.89,0,0,1,7.65,3.32h0a5.9,5.9,0,0,1-3.32,7.65Z"/></g></g></g></svg>