<svg xmlns="http://www.w3.org/2000/svg" viewBox="0 0 66.21 57.05"><defs><style>.cls-1,.cls-2{fill:none;stroke-linecap:round;stroke-miterlimit:10;stroke-width:2px;}.cls-1{stroke:#fff;}.cls-2{stroke:#f15d2f;}</style></defs><g id="Calque_2" data-name="Calque 2"><g id="Calque_1-2" data-name="Calque 1"><path class="cls-1" d="M1,27.79H64.75a0,0,0,0,1,0,0V46.41a1,1,0,0,1-1,1H2a1,1,0,0,1-1-1V27.79A0,0,0,0,1,1,27.79Z"/><rect class="cls-1" x="5.47" y="47.41" width="11.36" height="8.64" rx="1"/><rect class="cls-1" x="49.2" y="47.41" width="11.36" height="8.64" rx="1"/><circle class="cls-2" cx="12.59" cy="37.6" r="5.59"/><circle class="cls-2" cx="53.46" cy="37.6" r="5.59"/><line class="cls-2" x1="23.37" y1="35.41" x2="42.66" y2="35.41"/><line class="cls-1" x1="7" y1="17.5" x2="59.05" y2="17.5"/><line class="cls-2" x1="26.07" y1="40.42" x2="38.93" y2="40.42"/><path class="cls-1" d="M1,27.79,7,17.5,11.15,3.74S11.87,1,18.18,1H33"/><path class="cls-1" d="M65.21,27.79l-6-10.29L55.05,3.74S54.33,1,48,1H33.18"/><line class="cls-1" x1="2.98" y1="12.74" x2="6.33" y2="17.5"/><line class="cls-1" x1="62.23" y1="12.74" x2="58.88" y2="17.5"/></g></g></svg>