<?xml version="1.0" encoding="utf-8"?>
<!-- Generator: Adobe Illustrator 25.0.0, SVG Export Plug-In . SVG Version: 6.00 Build 0)  -->
<svg version="1.1" id="Calque_1" xmlns="http://www.w3.org/2000/svg" xmlns:xlink="http://www.w3.org/1999/xlink" x="0px" y="0px"
	 viewBox="0 0 75.1 65.2" style="enable-background:new 0 0 75.1 65.2;" xml:space="preserve">
<style type="text/css">
	.st0{fill:none;stroke:#FFFFFF;stroke-width:2;stroke-linecap:round;stroke-linejoin:round;stroke-miterlimit:10;}
	.st1{fill:none;stroke:#F15D2F;stroke-width:2;stroke-linecap:round;stroke-linejoin:round;stroke-miterlimit:10;}
</style>
<path class="st0" d="M39.7,30.1H18.2c-1.5,0-2.7-1.2-2.7-2.7V16c0-1.5,1.2-2.7,2.7-2.7h21.4c1.5,0,2.7,1.2,2.7,2.7v11.4
	C42.4,28.9,41.2,30.1,39.7,30.1z"/>
<polyline class="st0" points="31.4,43.6 26.6,50 31.4,50 26.6,55.6 "/>
<path class="st0" d="M49,26.8h1.2c2.8,0,5,2.2,5,5v16.8c0,2.8,2.2,5,5,5h0c2.8,0,5-2.2,5-5V15.8"/>
<line class="st1" x1="3.4" y1="63.8" x2="54.3" y2="63.8"/>
<path class="st1" d="M43.8,8.1H14.1c-2.9,0-5.2,2.3-5.2,5.2v50.5H49V13.3C49,10.4,46.7,8.1,43.8,8.1z"/>
<line class="st1" x1="8.9" y1="37.4" x2="38.1" y2="37.4"/>
<line class="st1" x1="43.6" y1="37.4" x2="49" y2="37.4"/>
<path class="st1" d="M72.1,7.6c0,4.4-1.9,7.9-6.9,7.9c-4.6,0-6.9-3.5-6.9-7.9C60.8,7.6,68.2,7.6,72.1,7.6z"/>
<line class="st1" x1="62.3" y1="1.1" x2="62.3" y2="7.6"/>
<line class="st1" x1="68.3" y1="1.1" x2="68.3" y2="7.6"/>
</svg>
