<svg xmlns="http://www.w3.org/2000/svg" viewBox="0 0 81.17 62.47"><defs><style>.cls-1,.cls-2,.cls-3{fill:none;stroke-miterlimit:10;stroke-width:2px;}.cls-1{stroke:#f15d2f;}.cls-2,.cls-3{stroke:#fff;}.cls-3{stroke-linecap:round;}</style></defs><g id="Calque_2" data-name="Calque 2"><g id="Calque_1-2" data-name="Calque 1"><path id="Rectangle_29" data-name="Rectangle 29" class="cls-1" d="M15.52,49l-3.74.9a2.13,2.13,0,0,1-2.7-1.19L1,15.66c-.24-1,.59-2,1.85-2.3L53.39,1.09a2.12,2.12,0,0,1,2.7,1.19L60,18.5"/><line id="Ligne_1" data-name="Ligne 1" class="cls-1" x1="15.52" y1="23.22" x2="3.87" y2="26.05"/><line id="Ligne_1-2" data-name="Ligne 1" class="cls-1" x1="58.63" y1="12.74" x2="35.63" y2="18.33"/><path id="Rectangle_29-2" data-name="Rectangle 29" class="cls-2" d="M77.5,61.47H18.19c-1.47,0-2.67-.92-2.67-2V20.56c0-1.14,1.2-2.06,2.67-2.06H77.5c1.47,0,2.67.92,2.67,2.06V59.42C80.17,60.55,79,61.47,77.5,61.47Z"/><path id="Rectangle_29-3" data-name="Rectangle 29" class="cls-2" d="M33.73,36.71H24a.47.47,0,0,1-.44-.48V27A.47.47,0,0,1,24,26.5h9.77a.47.47,0,0,1,.44.49v9.24A.47.47,0,0,1,33.73,36.71Z"/><line id="Ligne_1-3" data-name="Ligne 1" class="cls-3" x1="31.17" y1="49.84" x2="23.86" y2="49.84"/><line id="Ligne_1-4" data-name="Ligne 1" class="cls-3" x1="44.17" y1="49.84" x2="36.86" y2="49.84"/><line id="Ligne_1-5" data-name="Ligne 1" class="cls-3" x1="56.17" y1="49.84" x2="48.86" y2="49.84"/><line id="Ligne_1-6" data-name="Ligne 1" class="cls-3" x1="68.17" y1="49.84" x2="60.86" y2="49.84"/></g></g></svg>