<svg xmlns="http://www.w3.org/2000/svg" viewBox="0 0 69.88 63.46"><defs><style>.cls-1,.cls-2{fill:none;stroke-linecap:round;stroke-miterlimit:10;}.cls-1{stroke:#fff;stroke-width:3px;}.cls-2{stroke:#f15d2f;stroke-width:2px;}</style></defs><g id="Calque_2" data-name="Calque 2"><g id="Calque_1-2" data-name="Calque 1"><path class="cls-1" d="M14.16,18.62V3A1.54,1.54,0,0,1,15.71,1.5H66.84A1.54,1.54,0,0,1,68.38,3V53.69A8.27,8.27,0,0,1,60.11,62h-52"/><rect class="cls-2" x="22.11" y="8.58" width="18.19" height="13.73" rx="2.37"/><line class="cls-1" x1="22.11" y1="30.75" x2="59.46" y2="30.75"/><line class="cls-1" x1="48.88" y1="11.17" x2="59.46" y2="11.17"/><line class="cls-1" x1="48.88" y1="19.73" x2="59.46" y2="19.73"/><rect class="cls-2" x="41.27" y="39.18" width="18.19" height="13.73" rx="2.37" transform="translate(100.73 92.1) rotate(180)"/><line class="cls-1" x1="32.69" y1="50.33" x2="22.11" y2="50.33"/><line class="cls-1" x1="32.69" y1="41.77" x2="22.11" y2="41.77"/><path class="cls-1" d="M14.16,18.62H2.78A1.28,1.28,0,0,0,1.5,19.9V55.39A6.57,6.57,0,0,0,8.07,62h0a6.09,6.09,0,0,0,6.09-6.09Z"/></g></g></svg>