<?xml version="1.0" encoding="utf-8"?>
<!-- Generator: Adobe Illustrator 25.0.0, SVG Export Plug-In . SVG Version: 6.00 Build 0)  -->
<svg version="1.1" id="Calque_1" xmlns="http://www.w3.org/2000/svg" xmlns:xlink="http://www.w3.org/1999/xlink" x="0px" y="0px"
	 viewBox="0 0 75.1 65.2" style="enable-background:new 0 0 75.1 65.2;" xml:space="preserve">
<style type="text/css">
	.st0{fill:none;stroke:#F15D2F;stroke-width:2;stroke-linejoin:round;stroke-miterlimit:10;}
	.st1{fill:none;stroke:#FFFFFF;stroke-width:2;stroke-linejoin:round;stroke-miterlimit:10;}
</style>
<path class="st0" d="M22.7,46.1C22.7,46.1,22.7,46.1,22.7,46.1c0.2,0.1,0.3,0.2,0.5,0.3C23,46.3,22.9,46.2,22.7,46.1L22.7,46.1z"/>
<path class="st0" d="M49,47.1H24.5"/>
<path class="st0" d="M7.4,24.2c1.6,9.1,7.1,17.2,15.2,22V25.4c0-0.5,0-0.7,0.7-1.3L37.9,12c0.7-0.5,1.6-0.5,2.2,0l13.8,11.4
	c0,0,0,0,0,0c0,0,0,0,0,0c0.5,0.6,1,1.2,1.5,1.9c0.3,0.4,0.5,0.8,0.8,1.2c0.5,0.8,1,1.6,1.5,2.5c0.3,0.5,0.6,1.1,0.8,1.7
	c0,0,0,0.1,0.1,0.1c1.5,3.3,2.4,6.6,2.7,10c0.5,5.3-0.4,10.6-2.4,15.4"/>
<path class="st0" d="M11.7,50.3c8,4.8,17.8,5.7,26.5,2.7c2.3-0.8,4.5-1.9,6.7-3.2c-5,1-10.3,0.8-15.5-0.7"/>
<path class="st0" d="M29.4,49.1c-2.4-0.7-4.7-1.7-6.8-3C14.5,41.4,9,33.2,7.4,24.2"/>
<path class="st0" d="M32.8,63.8C39.3,62,45,58.2,49.1,53c1.5-1.9,2.8-3.9,3.8-6.1c0.8-1.6,1.4-3.3,1.9-5.1c0.2-0.7,0.4-1.5,0.6-2.2
	c0.1-0.4,0.2-0.9,0.2-1.4c-0.1,0.1-0.2,0.3-0.2,0.4"/>
<path class="st0" d="M55.4,38.7c-0.5,0.9-1.1,1.8-1.6,2.6c-1.4,1.9-2.9,3.7-4.8,5.4c-1.3,1.2-2.7,2.2-4.1,3.1
	c-2.1,1.4-4.4,2.4-6.7,3.2c-8.7,3-18.5,2.1-26.5-2.7"/>
<path class="st0" d="M58.8,56.3c2.1-4.8,2.9-10.1,2.4-15.4"/>
<path class="st0" d="M61.3,40.9c-0.3-3.4-1.2-6.8-2.7-10l-0.1-0.1c-0.3-0.6-0.5-1.1-0.8-1.7c-0.5-0.9-1-1.7-1.5-2.5
	c-0.3-0.4-0.5-0.8-0.8-1.2c-0.5-0.7-1-1.3-1.5-1.9l0,0c0.5,1,0.9,2,1.2,3.1c0.1,0.3,0.2,0.7,0.3,1c0.4,1.7,0.6,3.6,0.6,5.7
	c0,1.7-0.1,3.4-0.4,5c-0.1,0.5-0.2,0.9-0.2,1.4l-0.5,2.2c-0.5,1.8-1.1,3.5-1.9,5.1c-1,2.2-2.3,4.2-3.8,6.1c-4.1,5.2-9.8,9-16.4,10.8
	"/>
<circle class="st1" cx="37.9" cy="32.6" r="31.6"/>
</svg>
