<svg xmlns="http://www.w3.org/2000/svg" viewBox="0 0 32.11 62.71"><defs><style>.cls-1,.cls-2{fill:none;stroke-miterlimit:10;stroke-width:2px;}.cls-1{stroke:#f15d2f;stroke-linecap:round;}.cls-2{stroke:#fff;}</style></defs><g id="Calque_2" data-name="Calque 2"><g id="Calque_1-2" data-name="Calque 1"><path id="Tracé_88" data-name="Tracé 88" class="cls-1" d="M1,9.44l.07,46.89a5.39,5.39,0,0,0,5.4,5.38h0a6.3,6.3,0,0,0,6.28-6.31l-.07-46L8,1.77a1.59,1.59,0,0,0-2.2-.53,1.54,1.54,0,0,0-.57.59Z"/><line id="Ligne_36" data-name="Ligne 36" class="cls-1" x1="1" y1="9.44" x2="12.68" y2="9.42"/><line id="Ligne_37" data-name="Ligne 37" class="cls-2" x1="25.47" y1="9.4" x2="30.48" y2="9.39"/><line id="Ligne_38" data-name="Ligne 38" class="cls-2" x1="25.48" y1="17.74" x2="30.49" y2="17.74"/><line id="Ligne_39" data-name="Ligne 39" class="cls-2" x1="25.5" y1="26.09" x2="30.5" y2="26.08"/><line id="Ligne_40" data-name="Ligne 40" class="cls-2" x1="25.51" y1="34.43" x2="30.52" y2="34.42"/><line id="Ligne_41" data-name="Ligne 41" class="cls-2" x1="25.52" y1="42.77" x2="30.53" y2="42.76"/><line id="Ligne_42" data-name="Ligne 42" class="cls-2" x1="25.54" y1="51.11" x2="30.54" y2="51.1"/><line id="Ligne_43" data-name="Ligne 43" class="cls-1" x1="1.07" y1="53.37" x2="12.75" y2="53.36"/><line id="Ligne_44" data-name="Ligne 44" class="cls-1" x1="6.56" y1="9.43" x2="6.63" y2="53.37"/><rect id="Rectangle_24" data-name="Rectangle 24" class="cls-2" x="19.39" y="1.06" width="11.68" height="60.62" rx="2.76" transform="translate(-0.05 0.04) rotate(-0.09)"/></g></g></svg>