<svg xmlns="http://www.w3.org/2000/svg" viewBox="0 0 70.17 67.1"><defs><style>.cls-1,.cls-2,.cls-3,.cls-4{fill:none;stroke-miterlimit:10;stroke-width:2px;}.cls-1,.cls-2{stroke:#fff;}.cls-2,.cls-4{stroke-linecap:round;}.cls-3,.cls-4{stroke:#f15d2f;}</style></defs><g id="Calque_2" data-name="Calque 2"><g id="Calque_1-2" data-name="Calque 1"><path class="cls-1" d="M51.2,42.39V62.57a3.53,3.53,0,0,1-3.53,3.53H4.53A3.53,3.53,0,0,1,1,62.57v-58A3.53,3.53,0,0,1,4.53,1H47.67A3.53,3.53,0,0,1,51.2,4.53V30.07"/><line class="cls-2" x1="9.16" y1="21.3" x2="43.04" y2="21.3"/><line class="cls-2" x1="9.16" y1="14.18" x2="43.04" y2="14.18"/><line class="cls-2" x1="9.16" y1="28.41" x2="43.04" y2="28.41"/><line class="cls-2" x1="9.16" y1="35.16" x2="38.31" y2="35.16"/><line class="cls-2" x1="9.16" y1="42.28" x2="33.42" y2="42.28"/><path class="cls-3" d="M52.36,15.15h4.49a2,2,0,0,1,2,2V50.2a0,0,0,0,1,0,0H50.36a0,0,0,0,1,0,0V17.15a2,2,0,0,1,2-2Z" transform="translate(39.1 -29.04) rotate(45)"/><line class="cls-3" x1="58.59" y1="22.69" x2="64.59" y2="28.69"/><path class="cls-3" d="M38.78,42.39l-2.6,7.55a.91.91,0,0,0,1.16,1.16l7.55-2.6"/><path class="cls-4" d="M9.17,49.57c-.41,9.1,12.56-2.76,14.19,1.58.7,1.84-1.35,2.92,1.23,3.24,2.16.27,5.23-1.9,7.19-3"/></g></g></svg>