<svg xmlns="http://www.w3.org/2000/svg" viewBox="0 0 68.2 66.49"><defs><style>.cls-1,.cls-2{fill:none;stroke-miterlimit:10;stroke-width:2px;}.cls-1{stroke:#fff;}.cls-2{stroke:#ec6726;}</style></defs><g id="Calque_2" data-name="Calque 2"><g id="Calque_1-2" data-name="Calque 1"><g id="Groupe_359" data-name="Groupe 359"><g id="Groupe_357" data-name="Groupe 357"><rect id="Rectangle_35" data-name="Rectangle 35" class="cls-1" x="29.57" y="10" width="6.09" height="6.09"/><rect id="Rectangle_36" data-name="Rectangle 36" class="cls-1" x="41.86" y="10" width="6.09" height="6.09"/><rect id="Rectangle_37" data-name="Rectangle 37" class="cls-1" x="54.49" y="10" width="6.09" height="6.09"/></g><rect id="Rectangle_38" data-name="Rectangle 38" class="cls-1" x="29.57" y="23.38" width="6.09" height="6.09"/><rect id="Rectangle_39" data-name="Rectangle 39" class="cls-1" x="41.86" y="23.38" width="6.09" height="6.09"/><rect id="Rectangle_40" data-name="Rectangle 40" class="cls-1" x="54.49" y="23.38" width="6.09" height="6.09"/><rect id="Rectangle_41" data-name="Rectangle 41" class="cls-1" x="29.57" y="36.76" width="6.09" height="6.09"/><rect id="Rectangle_42" data-name="Rectangle 42" class="cls-1" x="41.86" y="36.76" width="6.09" height="6.09"/><rect id="Rectangle_43" data-name="Rectangle 43" class="cls-1" x="54.49" y="36.76" width="6.09" height="6.09"/><rect id="Rectangle_44" data-name="Rectangle 44" class="cls-1" x="29.57" y="50.4" width="6.09" height="6.09"/><g id="Groupe_358" data-name="Groupe 358"><rect id="Rectangle_45" data-name="Rectangle 45" class="cls-2" x="8.9" y="23.38" width="6.09" height="6.09"/><rect id="Rectangle_46" data-name="Rectangle 46" class="cls-2" x="8.9" y="36.76" width="6.09" height="6.09"/><rect id="Rectangle_47" data-name="Rectangle 47" class="cls-2" x="8.9" y="50.4" width="6.09" height="6.09"/></g><rect id="Rectangle_48" data-name="Rectangle 48" class="cls-1" x="40.18" y="50.4" width="9.68" height="15.09"/><rect id="Rectangle_49" data-name="Rectangle 49" class="cls-1" x="54.49" y="50.4" width="6.09" height="6.09"/><path id="Tracé_19" data-name="Tracé 19" class="cls-2" d="M22.89,16.3h-21a.87.87,0,0,0-.87.87V65.49H22.88"/><path id="Rectangle_50" data-name="Rectangle 50" class="cls-1" d="M24,1H66.08A1.12,1.12,0,0,1,67.2,2.12V65.49H22.83V2.12A1.12,1.12,0,0,1,24,1Z"/></g></g></g></svg>