<svg xmlns="http://www.w3.org/2000/svg" viewBox="0 0 70.86 68.3"><defs><style>.cls-1,.cls-2{fill:none;stroke-width:1.7px;}.cls-1{stroke:#f15d2f;}.cls-2{stroke:#fff;}</style></defs><g id="Calque_2" data-name="Calque 2"><g id="Calque_1-2" data-name="Calque 1"><g id="Groupe_363" data-name="Groupe 363"><path id="Tracé_5" data-name="Tracé 5" class="cls-1" d="M41,4.44l-.56-.08L37.82,4a.14.14,0,0,1-.12-.09c-.15-.33-.32-.65-.48-1L36.29,1A.24.24,0,0,0,36,.86l0,0a.33.33,0,0,0-.12.16l-1.4,2.84a.12.12,0,0,1-.1.09l-1.86.28-1.34.19a.24.24,0,0,0-.21.16.25.25,0,0,0,.07.26l.06.06L33.3,7.1a.18.18,0,0,1,.05.16c0,.13-.05.26-.08.4L33,9.42c0,.33-.11.67-.17,1a.23.23,0,0,0,.17.28h.09a.34.34,0,0,0,.14-.05L36,9.17a.12.12,0,0,1,.14,0l.67.36L39,10.67a.25.25,0,0,0,.32,0,.25.25,0,0,0,0-.25c-.09-.54-.18-1.07-.28-1.62s-.17-1-.26-1.54a.11.11,0,0,1,0-.12l1-.93,1.33-1.3a.29.29,0,0,0,.11-.21A.23.23,0,0,0,41,4.44Z"/><path id="Tracé_59" data-name="Tracé 59" class="cls-2" d="M26.23,7.73l-.56-.08L23,7.26a.14.14,0,0,1-.12-.09c-.15-.33-.32-.66-.48-1L21.49,4.3a.24.24,0,0,0-.3-.15l0,0a.35.35,0,0,0-.12.15l-1.4,2.85a.13.13,0,0,1-.1.09l-1.86.28-1.34.19a.24.24,0,0,0-.21.16.26.26,0,0,0,.07.26l.06.06,2.25,2.18a.18.18,0,0,1,.05.16c0,.13-.05.26-.08.4l-.3,1.75c-.05.34-.11.68-.17,1a.24.24,0,0,0,.17.28h.09L18.4,14l2.8-1.49a.12.12,0,0,1,.14,0l.67.36L24.16,14a.24.24,0,0,0,.32,0,.25.25,0,0,0,.05-.25c-.09-.54-.18-1.07-.28-1.62s-.17-1-.26-1.54a.11.11,0,0,1,0-.12l1-.93,1.33-1.3A.29.29,0,0,0,26.43,8,.22.22,0,0,0,26.23,7.73Z"/><path id="Tracé_62" data-name="Tracé 62" class="cls-2" d="M26.23,57.06,25.67,57,23,56.6a.15.15,0,0,1-.12-.1c-.15-.32-.32-.65-.48-1l-.93-1.89a.23.23,0,0,0-.3-.14h0a.33.33,0,0,0-.12.16l-1.4,2.84s0,.09-.1.09l-1.86.28-1.34.2a.21.21,0,0,0-.21.16.23.23,0,0,0,.07.25l.06.06,2.25,2.18a.18.18,0,0,1,.05.16c0,.13-.05.27-.08.4L18.17,62c-.05.34-.11.68-.17,1a.23.23,0,0,0,.17.27h.09a.35.35,0,0,0,.14-.06l2.8-1.48a.12.12,0,0,1,.14,0l.67.35,2.15,1.14a.24.24,0,0,0,.32,0,.25.25,0,0,0,.05-.25c-.09-.54-.18-1.07-.28-1.62s-.17-1-.26-1.53a.11.11,0,0,1,0-.12l1-.94,1.33-1.29a.3.3,0,0,0,.11-.22A.22.22,0,0,0,26.23,57.06Z"/><path id="Tracé_60" data-name="Tracé 60" class="cls-2" d="M55.83,7.73l-.56-.08-2.65-.39a.14.14,0,0,1-.12-.09l-.48-1L51.09,4.3a.24.24,0,0,0-.3-.15l0,0a.35.35,0,0,0-.12.15l-1.4,2.85a.13.13,0,0,1-.1.09l-1.86.28-1.34.19a.24.24,0,0,0-.21.16.26.26,0,0,0,.07.26l.06.06,2.25,2.18a.18.18,0,0,1,0,.16c0,.13,0,.26-.08.4l-.3,1.75c-.05.34-.11.68-.17,1a.24.24,0,0,0,.17.28h.09L48,14l2.8-1.49a.12.12,0,0,1,.14,0l.67.36L53.76,14a.25.25,0,0,0,.32,0,.25.25,0,0,0,.05-.25c-.09-.54-.18-1.07-.28-1.62s-.17-1-.26-1.54a.11.11,0,0,1,0-.12l1-.93,1.33-1.3A.29.29,0,0,0,56,8,.23.23,0,0,0,55.83,7.73Z"/><path id="Tracé_61" data-name="Tracé 61" class="cls-2" d="M55.83,57.06,55.27,57l-2.65-.38a.15.15,0,0,1-.12-.1l-.48-1-.93-1.89a.23.23,0,0,0-.3-.14h0a.33.33,0,0,0-.12.16l-1.4,2.84s0,.09-.1.09l-1.86.28-1.34.2a.21.21,0,0,0-.21.16.23.23,0,0,0,.07.25l.06.06,2.25,2.18a.18.18,0,0,1,0,.16c0,.13,0,.27-.08.4L47.77,62c-.05.34-.11.68-.17,1a.23.23,0,0,0,.17.27h.09a.35.35,0,0,0,.14-.06l2.8-1.48a.12.12,0,0,1,.14,0c.22.12.44.24.67.35l2.15,1.14a.24.24,0,0,0,.37-.28c-.09-.54-.18-1.07-.28-1.62s-.17-1-.26-1.53a.11.11,0,0,1,0-.12l1-.94,1.33-1.29a.3.3,0,0,0,.11-.22A.23.23,0,0,0,55.83,57.06Z"/><path id="Tracé_57" data-name="Tracé 57" class="cls-2" d="M11,33.22l-.56-.08-2.64-.39a.13.13,0,0,1-.12-.09c-.16-.33-.32-.66-.49-1l-.93-1.88a.23.23,0,0,0-.3-.15l0,0a.28.28,0,0,0-.11.15L4.37,32.66a.13.13,0,0,1-.1.09L2.41,33l-1.34.2a.25.25,0,0,0-.21.16.26.26,0,0,0,.07.26L1,33.7l2.24,2.18a.14.14,0,0,1,0,.16c0,.13,0,.26-.07.39l-.3,1.76c-.06.34-.12.68-.17,1a.23.23,0,0,0,.16.28H3l.14-.05L5.94,38a.14.14,0,0,1,.15,0l.66.36L8.9,39.45a.24.24,0,0,0,.32,0,.29.29,0,0,0,.06-.25c-.1-.54-.19-1.08-.28-1.62L8.73,36a.14.14,0,0,1,0-.12l1-.94,1.32-1.29a.3.3,0,0,0,.12-.21A.23.23,0,0,0,11,33.22Z"/><path id="Tracé_63" data-name="Tracé 63" class="cls-1" d="M15.9,47.2l-.55-.09-2.65-.38a.16.16,0,0,1-.12-.09l-.48-1-.93-1.88a.25.25,0,0,0-.31-.15h0a.31.31,0,0,0-.12.16l-1.4,2.85a.13.13,0,0,1-.1.09L7.34,47,6,47.2a.23.23,0,0,0-.14.41l.06.07,2.24,2.17a.15.15,0,0,1,.05.16c0,.14-.05.27-.07.4l-.3,1.76c-.06.34-.12.68-.17,1a.22.22,0,0,0,.17.27h.08a.39.39,0,0,0,.15-.06l2.79-1.48a.14.14,0,0,1,.15,0l.66.36,2.15,1.13a.23.23,0,0,0,.32,0,.3.3,0,0,0,.06-.26c-.09-.53-.19-1.07-.28-1.61s-.17-1-.27-1.54a.11.11,0,0,1,.05-.12l1-.94L16,47.64a.3.3,0,0,0,.12-.22A.23.23,0,0,0,15.9,47.2Z"/><path id="Tracé_66" data-name="Tracé 66" class="cls-1" d="M15.9,19.24l-.55-.08-2.65-.39a.14.14,0,0,1-.12-.09l-.48-1-.93-1.89a.25.25,0,0,0-.31-.15l0,0a.28.28,0,0,0-.12.16l-1.4,2.84a.13.13,0,0,1-.1.09l-1.87.28L6,19.24a.25.25,0,0,0-.22.16.25.25,0,0,0,.08.26l.06.06L8.17,21.9a.14.14,0,0,1,.05.16c0,.13-.05.26-.07.4l-.3,1.76c-.06.33-.12.67-.17,1a.22.22,0,0,0,.17.28h.08a.38.38,0,0,0,.15-.05L10.87,24A.14.14,0,0,1,11,24l.66.36,2.15,1.14a.24.24,0,0,0,.32,0,.28.28,0,0,0,.06-.25c-.09-.54-.19-1.07-.28-1.62s-.17-1-.27-1.54a.12.12,0,0,1,.05-.12l1-.93L16,19.68a.3.3,0,0,0,.12-.21A.23.23,0,0,0,15.9,19.24Z"/><path id="Tracé_64" data-name="Tracé 64" class="cls-1" d="M66.88,47.2l-.55-.09-2.65-.38a.14.14,0,0,1-.12-.09c-.16-.33-.32-.66-.49-1l-.93-1.88a.23.23,0,0,0-.3-.15h0a.36.36,0,0,0-.11.16l-1.41,2.85a.13.13,0,0,1-.1.09L58.32,47,57,47.2a.23.23,0,0,0-.14.41l.07.07,2.24,2.17a.15.15,0,0,1,.05.16c0,.14-.05.27-.07.4l-.3,1.76c-.06.34-.12.68-.17,1a.22.22,0,0,0,.16.27h.09a.47.47,0,0,0,.15-.06l2.79-1.48a.14.14,0,0,1,.15,0l.66.36,2.15,1.13a.23.23,0,0,0,.32,0,.3.3,0,0,0,.06-.26c-.1-.53-.19-1.07-.28-1.61L64.64,50a.13.13,0,0,1,0-.12l1-.94L67,47.64a.3.3,0,0,0,.12-.22A.23.23,0,0,0,66.88,47.2Z"/><path id="Tracé_65" data-name="Tracé 65" class="cls-1" d="M66.88,19.24l-.55-.08-2.65-.39a.13.13,0,0,1-.12-.09c-.16-.33-.32-.65-.49-1l-.93-1.89a.24.24,0,0,0-.3-.15l0,0a.31.31,0,0,0-.11.16l-1.41,2.84a.13.13,0,0,1-.1.09l-1.86.28L57,19.24a.25.25,0,0,0-.21.16.25.25,0,0,0,.07.26l.07.06,2.24,2.18a.14.14,0,0,1,.05.16c0,.13-.05.26-.07.4l-.3,1.76c-.06.33-.12.67-.17,1a.23.23,0,0,0,.16.28h.09a.44.44,0,0,0,.15-.05L61.85,24A.14.14,0,0,1,62,24l.66.36,2.15,1.14a.24.24,0,0,0,.32,0,.28.28,0,0,0,.06-.25c-.1-.54-.19-1.07-.28-1.62L64.64,22a.14.14,0,0,1,0-.12l1-.93L67,19.68a.3.3,0,0,0,.12-.21A.23.23,0,0,0,66.88,19.24Z"/><path id="Tracé_58" data-name="Tracé 58" class="cls-2" d="M69.8,33.22l-.55-.08-2.65-.39a.14.14,0,0,1-.12-.09l-.48-1-.93-1.88a.23.23,0,0,0-.3-.15l0,0a.26.26,0,0,0-.12.15l-1.4,2.85a.13.13,0,0,1-.1.09L61.24,33l-1.33.2a.27.27,0,0,0-.22.16.29.29,0,0,0,.08.26l.06.06,2.24,2.18a.14.14,0,0,1,0,.16c0,.13,0,.26-.07.39l-.3,1.76c0,.34-.12.68-.17,1a.24.24,0,0,0,.17.28h.09l.14-.05L64.77,38a.14.14,0,0,1,.15,0l.66.36,2.16,1.14a.23.23,0,0,0,.31,0,.24.24,0,0,0,.06-.25c-.09-.54-.19-1.08-.28-1.62s-.17-1-.26-1.54a.11.11,0,0,1,0-.12l1-.94,1.32-1.29a.27.27,0,0,0,.12-.21A.23.23,0,0,0,69.8,33.22Z"/><path id="Tracé_56" data-name="Tracé 56" class="cls-1" d="M41,61.17l-.56-.08-2.65-.38a.16.16,0,0,1-.12-.09c-.15-.33-.32-.66-.48-1l-.93-1.89a.23.23,0,0,0-.3-.14h0a.33.33,0,0,0-.12.16l-1.4,2.85s0,.08-.1.08L32.47,61l-1.34.2a.21.21,0,0,0-.21.16.23.23,0,0,0,.07.25l.06.06,2.25,2.18a.18.18,0,0,1,.05.16c0,.13-.05.27-.08.4L33,66.15c0,.34-.11.68-.17,1a.23.23,0,0,0,.17.27h.09a.35.35,0,0,0,.14-.06L36,65.91a.12.12,0,0,1,.14,0l.67.36L39,67.4a.24.24,0,0,0,.32,0,.27.27,0,0,0,0-.26c-.09-.54-.18-1.07-.28-1.61s-.17-1-.26-1.54a.11.11,0,0,1,0-.12l1-.94,1.33-1.29a.3.3,0,0,0,.11-.22A.23.23,0,0,0,41,61.17Z"/></g></g></g></svg>