<svg xmlns="http://www.w3.org/2000/svg" viewBox="0 0 66.42 66.92"><defs><style>.cls-1,.cls-2{fill:none;stroke-miterlimit:10;stroke-width:2px;}.cls-1{stroke:#fff;}.cls-2{stroke:#f15d2f;}</style></defs><g id="Calque_2" data-name="Calque 2"><g id="Calque_1-2" data-name="Calque 1"><g id="Groupe_12" data-name="Groupe 12"><circle id="Ellipse_3" data-name="Ellipse 3" class="cls-1" cx="33.21" cy="33.21" r="7.36"/><path id="Tracé_6" data-name="Tracé 6" class="cls-1" d="M52.49,26.46A20.42,20.42,0,0,1,33.21,53.64h0A20.44,20.44,0,0,1,12.78,33.21h0A20.43,20.43,0,0,1,44.43,16.14"/><path id="Tracé_7" data-name="Tracé 7" class="cls-1" d="M45.75,62.89A32.23,32.23,0,0,1,1,33.21H1A32.06,32.06,0,0,1,6.35,15.42"/><path id="Tracé_8" data-name="Tracé 8" class="cls-1" d="M15.42,6.36a32.21,32.21,0,0,1,50,26.85h0A32.06,32.06,0,0,1,56.18,55.8"/><circle id="Ellipse_4" data-name="Ellipse 4" class="cls-2" cx="10.39" cy="10.39" r="6.45"/><circle id="Ellipse_5" data-name="Ellipse 5" class="cls-2" cx="49.6" cy="20.69" r="6.45"/><path id="Tracé_9" data-name="Tracé 9" class="cls-2" d="M56.18,55.79A6.45,6.45,0,1,1,50.88,53a6.43,6.43,0,0,1,5.3,2.78"/></g></g></g></svg>