<svg xmlns="http://www.w3.org/2000/svg" viewBox="0 0 66.81 64.96"><defs><style>.cls-1,.cls-2{fill:none;stroke:#fff;stroke-miterlimit:10;stroke-width:2px;}.cls-2{stroke-linecap:round;}.cls-3{fill:#ec6726;}</style></defs><g id="Calque_2" data-name="Calque 2"><g id="Calque_1-2" data-name="Calque 1"><g id="Groupe_362" data-name="Groupe 362"><circle id="Ellipse_15" data-name="Ellipse 15" class="cls-1" cx="33.41" cy="17.41" r="7.81"/><line id="Ligne_11" data-name="Ligne 11" class="cls-1" x1="33.41" y1="25.22" x2="33.41" y2="63.21"/><line id="Ligne_12" data-name="Ligne 12" class="cls-2" x1="40.07" y1="63.96" x2="26.57" y2="63.96"/><g id="Groupe_360" data-name="Groupe 360"><path id="Tracé_20" data-name="Tracé 20" class="cls-3" d="M60.34,34.29,60.6,34c.4-.46.82-.92,1.18-1.41A25.17,25.17,0,0,0,66,11.1,23.88,23.88,0,0,0,60.24.43,1.23,1.23,0,0,0,59.42,0h-.11a1,1,0,0,0-1,.62,1.29,1.29,0,0,0,0,1.5,8.64,8.64,0,0,0,.56.67c.14.15.27.31.4.47a22,22,0,0,1,5,14.12h0a22.1,22.1,0,0,1-3.59,12.27,25.05,25.05,0,0,1-2,2.6l-.32.38a1.4,1.4,0,0,0,.22,1.95,1.15,1.15,0,0,0,1.62-.23Z"/><path id="Tracé_21" data-name="Tracé 21" class="cls-3" d="M54.67,29.74a18.08,18.08,0,0,0,4.69-12.28A18.21,18.21,0,0,0,54.52,5a1,1,0,0,0-.76-.36H53.6a1.3,1.3,0,0,0-1,.81,1.35,1.35,0,0,0,.18,1.34,7.34,7.34,0,0,0,.51.6c.21.24.42.48.61.73a15.62,15.62,0,0,1,.29,18.25,13,13,0,0,1-.87,1.09c-.19.22-.38.44-.56.67A1.4,1.4,0,0,0,52.89,30a1.19,1.19,0,0,0,1.67-.13A.83.83,0,0,0,54.67,29.74Z"/><path id="Tracé_22" data-name="Tracé 22" class="cls-3" d="M47.58,25.5a1.14,1.14,0,0,0,1.5-.31,11.34,11.34,0,0,0,3-7.75L52,17c0-.44-.05-.88-.11-1.31A11.17,11.17,0,0,0,49,9.54a1.11,1.11,0,0,0-.8-.35h-.1a1.16,1.16,0,0,0-.86.52c-.35.55-.44,1.1.3,2a8.77,8.77,0,0,1,0,11.46,2.67,2.67,0,0,0-.48.75A1.36,1.36,0,0,0,47.58,25.5Z"/></g><g id="Groupe_361" data-name="Groupe 361"><path id="Tracé_23" data-name="Tracé 23" class="cls-3" d="M6.47,34.29,6.22,34A17.28,17.28,0,0,1,5,32.59,25.21,25.21,0,0,1,.82,11.1,24,24,0,0,1,6.57.43,1.25,1.25,0,0,1,7.39,0h.12a1,1,0,0,1,1,.62,1.31,1.31,0,0,1,0,1.5,8.64,8.64,0,0,1-.56.67c-.14.15-.28.31-.41.47A22.1,22.1,0,0,0,2.43,17.38h0A22.19,22.19,0,0,0,6,29.65a26.4,26.4,0,0,0,2,2.6l.33.38a1.4,1.4,0,0,1-.22,1.95,1.15,1.15,0,0,1-1.62-.23Z"/><path id="Tracé_24" data-name="Tracé 24" class="cls-3" d="M12.14,29.74A18.13,18.13,0,0,1,7.45,17.46a19.15,19.15,0,0,1,.21-2.83A17.73,17.73,0,0,1,12.3,5a1,1,0,0,1,.76-.36h.16a1.28,1.28,0,0,1,1,.81,1.34,1.34,0,0,1-.17,1.34c-.16.21-.34.41-.51.6s-.42.48-.61.73a15.62,15.62,0,0,0-.3,18.25,13,13,0,0,0,.87,1.09c.19.22.38.44.56.67A1.38,1.38,0,0,1,13.92,30a1.19,1.19,0,0,1-1.67-.13Z"/><path id="Tracé_25" data-name="Tracé 25" class="cls-3" d="M19.23,25.5a1.14,1.14,0,0,1-1.5-.31,11.34,11.34,0,0,1-3-7.75l0-.44c0-.44.06-.88.12-1.31a11.17,11.17,0,0,1,2.95-6.15,1.08,1.08,0,0,1,.79-.35h.1a1.16,1.16,0,0,1,.86.52c.36.55.44,1.1-.3,2a8.8,8.8,0,0,0,0,11.46,2.7,2.7,0,0,1,.49.75A1.36,1.36,0,0,1,19.23,25.5Z"/></g></g></g></g></svg>