<svg xmlns="http://www.w3.org/2000/svg" viewBox="0 0 81.21 57.7"><defs><style>.cls-1,.cls-3,.cls-4{fill:none;stroke-linecap:round;stroke-width:2px;}.cls-1{stroke:#fff;}.cls-1,.cls-3{stroke-miterlimit:10;}.cls-2{fill:#ec6726;}.cls-3,.cls-4{stroke:#ec6726;}.cls-4{stroke-linejoin:round;}</style></defs><g id="Calque_2" data-name="Calque 2"><g id="Calque_1-2" data-name="Calque 1"><g id="Groupe_354" data-name="Groupe 354"><g id="Groupe_353" data-name="Groupe 353"><path id="Tracé_13" data-name="Tracé 13" class="cls-1" d="M59.91,45.85h-57A1.83,1.83,0,0,1,1,44.06V2.79A1.83,1.83,0,0,1,2.86,1H68.72a1.83,1.83,0,0,1,1.86,1.79v20.6"/><line id="Ligne_8" data-name="Ligne 8" class="cls-1" x1="35.79" y1="45.85" x2="35.79" y2="56.7"/><line id="Ligne_9" data-name="Ligne 9" class="cls-1" x1="42.33" y1="56.7" x2="28.74" y2="56.7"/></g><path id="Tracé_15" data-name="Tracé 15" class="cls-2" d="M70.57,54.55a1.75,1.75,0,0,1,0-3.5h0a1.75,1.75,0,0,1,0,3.5Z"/><path id="Tracé_16" data-name="Tracé 16" class="cls-3" d="M75.83,49H65.32c-.14,0-.18,0-.18-.25V30.78c0-.2,0-.25.17-.25H75.86c.15,0,.16.07.16.25v17.9C76,48.89,76,49,75.83,49Z"/><line id="Ligne_10" data-name="Ligne 10" class="cls-1" x1="1" y1="36.18" x2="60.22" y2="36.18"/><rect id="Rectangle_34" data-name="Rectangle 34" class="cls-4" x="60.95" y="24.89" width="19.25" height="31.81"/></g></g></g></svg>