<svg xmlns="http://www.w3.org/2000/svg" viewBox="0 0 76.79 65.94"><defs><style>.cls-1,.cls-2{fill:none;stroke-miterlimit:10;stroke-width:2px;}.cls-1{stroke:#fff;}.cls-2{stroke:#f15d2f;}</style></defs><g id="Calque_2" data-name="Calque 2"><g id="Calque_1-2" data-name="Calque 1"><path class="cls-1" d="M69.46,29.75V63.94a1,1,0,0,1-1,1H8.11a1,1,0,0,1-1-1V29.75"/><path class="cls-2" d="M60.65,21.51a7.46,7.46,0,0,1-14.91,0"/><path class="cls-2" d="M60.65,21.51a7.46,7.46,0,1,0,14.92,0h0V18.06"/><path class="cls-2" d="M30.83,21.51a7.46,7.46,0,0,1-14.92,0"/><path class="cls-2" d="M15.91,21.51A7.46,7.46,0,0,1,1,21.51H1V18.06L11.91,1H64.66L75.94,19"/><path class="cls-2" d="M45.74,21.51a7.46,7.46,0,0,1-14.91,0"/><path class="cls-1" d="M16.19,64.38V38.49a1,1,0,0,1,1-1H32.76a1,1,0,0,1,1,1V64.38"/><path class="cls-1" d="M42.22,37.21H57.79a1,1,0,0,1,1,1V49.47H41.22V38.21A1,1,0,0,1,42.22,37.21Z"/><line class="cls-2" x1="1.28" y1="18.06" x2="75.57" y2="18.06"/></g></g></svg>