<svg xmlns="http://www.w3.org/2000/svg" viewBox="0 0 64.44 58.37"><defs><style>.cls-1,.cls-2{fill:none;stroke-width:2px;}.cls-1{stroke:#fff;stroke-miterlimit:10;}.cls-2{stroke:#f15d2f;}</style></defs><g id="Calque_2" data-name="Calque 2"><g id="Calque_1-2" data-name="Calque 1"><path class="cls-1" d="M43.59,34.15l9.13,9.13a3.28,3.28,0,0,0,4.64,0h0a3.28,3.28,0,0,0,0-4.64L38.59,19.87l-4.23,5.69S32.9,27,30,26.29a7.91,7.91,0,0,1-4.38-2.91l7.3-10.22s2.92-2.92,8.75-2.19"/><path class="cls-1" d="M49,48.91a3.94,3.94,0,0,1-1.07,3.85h0a3.27,3.27,0,0,1-4.64,0l-9.13-9.12"/><path class="cls-1" d="M42.38,51.83A3.74,3.74,0,0,1,42,56.41h0a3.28,3.28,0,0,1-4.64,0L32.17,51.1"/><path class="cls-1" d="M53.33,43.8c1.28,1.29,1.67,4,.39,5.32h0a3.3,3.3,0,0,1-4.65,0L38.74,38.7"/><path class="cls-1" d="M52.6,21.92s3.8,7.29-1,10.94"/><path class="cls-1" d="M31.44,13.89a9.6,9.6,0,0,0-11.18-.31"/><path class="cls-1" d="M11.64,22.15c-1,1.41-3.24,5.81.35,11.2"/><rect class="cls-1" x="11.84" y="37.78" width="14.44" height="6.27" rx="3.14" transform="translate(-23.35 25.46) rotate(-45)"/><rect class="cls-1" x="18.62" y="42.02" width="10.32" height="7.22" rx="3.61" transform="translate(-25.3 30.18) rotate(-45)"/><rect class="cls-1" x="9.14" y="32.53" width="10.32" height="7.22" rx="3.61" transform="translate(-21.37 20.69) rotate(-45)"/><rect class="cls-1" x="25.28" y="47.64" width="7.22" height="6.19" rx="3.1" transform="translate(-27.41 35.29) rotate(-45)"/><rect class="cls-2" x="37.88" y="8.07" width="26.63" height="10.37" rx="2" transform="translate(24.36 -32.31) rotate(45)"/><rect class="cls-2" x="-0.06" y="8.07" width="26.63" height="10.37" rx="2" transform="translate(31.99 13.25) rotate(135)"/></g></g></svg>