<?xml version="1.0" encoding="utf-8"?>
<!-- Generator: Adobe Illustrator 25.0.0, SVG Export Plug-In . SVG Version: 6.00 Build 0)  -->
<svg version="1.1" id="Calque_1" xmlns="http://www.w3.org/2000/svg" xmlns:xlink="http://www.w3.org/1999/xlink" x="0px" y="0px"
	 viewBox="0 0 75.1 65.2" style="enable-background:new 0 0 75.1 65.2;" xml:space="preserve">
<style type="text/css">
	.st0{fill:none;stroke:#F15D2F;stroke-width:2;stroke-linecap:round;stroke-linejoin:round;stroke-miterlimit:10;}
	.st1{fill:none;stroke:#FFFFFF;stroke-width:2;stroke-linecap:round;stroke-linejoin:round;stroke-miterlimit:10;}
</style>
<g>
	<path class="st0" d="M24,28.9c3.6,0,8.4-2.2,10.6-11.1c1-4.2,4.3-7,5-14c0.1-1.3,1.1-2.3,2.4-2.4c8.5-0.7,6,11.4,4.5,16.7
		c-0.7,2.4-0.7,4.1-0.5,5.1c0.2,1.1,1.2,1.9,2.3,2c2.6,0.2,5.8,0.2,11.2,0.7c3.8,0.4,8.4,1.4,6.2,8.1c4.6,4.9-0.5,10.6-0.5,10.6
		c3,5.4-2.4,9.5-2.4,9.5c1.4,6.8-4.9,9.5-10.3,9.5H36.2c-4.6,0-12.2-5.4-12.2-5.4 M24,40.1v18.2H10.3c-1.6,0-2.9-1.3-2.9-2.9V31.8
		c0-1.6,1.3-2.9,2.9-2.9H24"/>
</g>
<line class="st1" x1="15.5" y1="51.1" x2="15.5" y2="44.7"/>
</svg>
