<svg xmlns="http://www.w3.org/2000/svg" viewBox="0 0 90.49 36.86"><defs><style>.cls-1,.cls-2{fill:none;stroke-width:2px;}.cls-1{stroke:#f15d2f;}.cls-2{stroke:#fff;}</style></defs><g id="Calque_2" data-name="Calque 2"><g id="Calque_1-2" data-name="Calque 1"><g id="Groupe_11" data-name="Groupe 11"><g id="Groupe_10" data-name="Groupe 10"><path id="Tracé_3" data-name="Tracé 3" class="cls-1" d="M56.73,9.31l-1.28-.18-6.14-.9A.33.33,0,0,1,49,8L47.91,5.74c-.72-1.46-1.43-2.92-2.15-4.37a.55.55,0,0,0-.7-.34l-.09,0a.71.71,0,0,0-.28.36L41.44,8c0,.1-.09.19-.23.21l-4.32.63-3.09.45a.56.56,0,0,0-.5.37.58.58,0,0,0,.17.6l.15.14,5.2,5.05a.37.37,0,0,1,.12.37c-.07.3-.12.61-.17.92-.23,1.36-.46,2.72-.7,4.08-.13.78-.27,1.57-.39,2.36a.53.53,0,0,0,.38.64.54.54,0,0,0,.22,0,1,1,0,0,0,.33-.12l6.47-3.44a.32.32,0,0,1,.34,0L47,21.1l5,2.63a.56.56,0,0,0,.74-.06.63.63,0,0,0,.13-.59c-.21-1.24-.43-2.49-.65-3.74s-.4-2.38-.61-3.57a.28.28,0,0,1,.1-.27l2.23-2.17,3.06-3a.66.66,0,0,0,.27-.49A.53.53,0,0,0,56.73,9.31Z"/><path id="Tracé_4" data-name="Tracé 4" class="cls-2" d="M89,21.31l-1.29-.19-6.13-.89a.31.31,0,0,1-.28-.21l-1.12-2.28L78,13.37a.56.56,0,0,0-.71-.34l-.08,0a.67.67,0,0,0-.28.36q-1.64,3.3-3.25,6.6c0,.1-.09.18-.23.2l-4.32.64-3.1.45a.55.55,0,0,0-.49.37.59.59,0,0,0,.17.6l.15.14,5.2,5a.37.37,0,0,1,.11.38c-.06.3-.11.61-.16.92-.23,1.36-.47,2.72-.7,4.07-.13.79-.27,1.57-.4,2.36a.53.53,0,0,0,.39.64.5.5,0,0,0,.21,0,.89.89,0,0,0,.34-.13l6.47-3.43a.3.3,0,0,1,.34,0l1.54.82,5,2.63a.56.56,0,0,0,.74-.06.63.63,0,0,0,.13-.59c-.21-1.25-.43-2.5-.65-3.75S84,29,83.83,27.77a.27.27,0,0,1,.09-.27l2.24-2.17,3.06-3a.7.7,0,0,0,.27-.5A.53.53,0,0,0,89,21.31Z"/><path id="Tracé_5" data-name="Tracé 5" class="cls-2" d="M24.45,21.31l-1.28-.19L17,20.23a.34.34,0,0,1-.28-.21l-1.12-2.28q-1.07-2.19-2.15-4.37a.55.55,0,0,0-.7-.34l-.09,0a.67.67,0,0,0-.28.36q-1.62,3.3-3.25,6.6c-.05.1-.09.18-.23.2l-4.32.64-3.09.45a.54.54,0,0,0-.49.37.57.57,0,0,0,.17.6l.15.14,5.19,5a.37.37,0,0,1,.12.38c-.06.3-.12.61-.17.92L5.8,32.84c-.14.79-.27,1.57-.4,2.36a.52.52,0,0,0,.38.64.55.55,0,0,0,.22,0,.79.79,0,0,0,.33-.13l6.47-3.43a.3.3,0,0,1,.34,0l1.54.82,5,2.63a.56.56,0,0,0,.74-.06.63.63,0,0,0,.13-.59c-.21-1.25-.43-2.5-.64-3.75s-.41-2.38-.62-3.56a.28.28,0,0,1,.1-.27l2.23-2.17,3.06-3a.67.67,0,0,0,.27-.5A.53.53,0,0,0,24.45,21.31Z"/></g></g></g></g></svg>