<?xml version="1.0" encoding="utf-8"?>
<!-- Generator: Adobe Illustrator 25.0.0, SVG Export Plug-In . SVG Version: 6.00 Build 0)  -->
<svg version="1.1" id="Calque_1" xmlns="http://www.w3.org/2000/svg" xmlns:xlink="http://www.w3.org/1999/xlink" x="0px" y="0px"
	 viewBox="0 0 75.1 65.2" style="enable-background:new 0 0 75.1 65.2;" xml:space="preserve">
<style type="text/css">
	.st0{fill:none;stroke:#F15D2F;stroke-width:2;stroke-linecap:round;stroke-linejoin:round;stroke-miterlimit:10;}
	.st1{fill:none;stroke:#FFFFFF;stroke-width:2;stroke-linecap:round;stroke-linejoin:round;stroke-miterlimit:10;}
</style>
<g>
	<path class="st0" d="M65.4,36.3c0,3.9-3.1,7-7,7s-7-3.1-7-7c0-3.9,3.1-7,7-7S65.4,32.4,65.4,36.3z M72.8,60.8v-5
		c0-4-3.2-7.2-7.1-7.2h-2.1l-5.2,5.2l-5.2-5.2h-2.1c-3.9,0-7.1,3.2-7.1,7.2v5"/>
	<path class="st0" d="M23.7,36.3c0,3.9-3.1,7-7,7s-7-3.1-7-7c0-3.9,3.1-7,7-7S23.7,32.4,23.7,36.3z M31.2,60.8v-5
		c0-4-3.2-7.2-7.1-7.2h-2.1l-5.2,5.2l-5.2-5.2H9.4c-3.9,0-7.1,3.2-7.1,7.2v5"/>
	<path class="st1" d="M41.3,11.5V9.9c0-3-2.5-5.3-5.6-5.3H22.9c-3.1,0-5.6,2.4-5.6,5.3v3.9c0,3,2.5,5.3,5.6,5.3h8"/>
	<path class="st1" d="M34.4,12.2v1.6c0,3,2.5,5.3,5.6,5.3h12.8c3.1,0,5.6-2.4,5.6-5.3V9.9c0-3-2.5-5.3-5.6-5.3h-7.6"/>
</g>
</svg>
