<svg xmlns="http://www.w3.org/2000/svg" viewBox="0 0 77.81 61.01"><defs><style>.cls-1,.cls-2,.cls-3{fill:none;}.cls-1,.cls-2{stroke:#fff;stroke-miterlimit:10;stroke-width:2px;}.cls-2{stroke-linecap:round;}.cls-3{stroke:#f15d2f;stroke-width:1.5px;}</style></defs><g id="Calque_2" data-name="Calque 2"><g id="Calque_1-2" data-name="Calque 1"><rect class="cls-1" x="1" y="33.79" width="13.38" height="26.1" rx="1"/><path class="cls-2" d="M14.38,38.67s7.73-4.28,12-4S50.23,41,50.23,41a4.11,4.11,0,0,1,1.48,4.93c-1.15,3.29-2.46,4-5.92,3.13s-11.35-3-11.35-3"/><path class="cls-2" d="M14.38,56.43a19.52,19.52,0,0,1,9.21-.82c4.93.82,17.73,4.27,20.46,4.27s2.49.66,8-1S74.41,52,74.41,52a4.87,4.87,0,0,0,2-6.09,4.65,4.65,0,0,0-5.42-3L50.72,48"/><path class="cls-3" d="M38.11,12.2a15.31,15.31,0,0,1,1.7-4.34,14.11,14.11,0,0,1,3-3.65A14.33,14.33,0,0,1,47.07,1.7,14.5,14.5,0,0,1,52.41.75a13.47,13.47,0,0,1,7.11,1.81A11.49,11.49,0,0,1,64,7.25l-4.45,3.06a7.86,7.86,0,0,0-1.42-2.12,7.22,7.22,0,0,0-1.81-1.36,8.07,8.07,0,0,0-2-.73,9.16,9.16,0,0,0-2.06-.23,8.37,8.37,0,0,0-3,.5A8,8,0,0,0,47,7.73a8.81,8.81,0,0,0-1.72,2,10,10,0,0,0-1.09,2.45H54.89l-1.26,3.1h-10v.46a11.26,11.26,0,0,0,.12,1.68h9.81l-1.25,3.1H44.61a9.83,9.83,0,0,0,3.08,3.82,7.62,7.62,0,0,0,4.64,1.47,9.09,9.09,0,0,0,2.09-.25,8,8,0,0,0,3.91-2.2,6.65,6.65,0,0,0,1.34-2.08L64.41,24a9,9,0,0,1-2,2.95,13.13,13.13,0,0,1-3,2.16,15.07,15.07,0,0,1-3.54,1.35,15.93,15.93,0,0,1-3.69.46,12.65,12.65,0,0,1-4.63-.84,15,15,0,0,1-3.92-2.24,14.69,14.69,0,0,1-3-3.3,16.3,16.3,0,0,1-2-4H34.21l1.3-3.1h2.35a13.54,13.54,0,0,1-.12-1.84v-.3H34.8l1.26-3.1Z"/></g></g></svg>