<svg xmlns="http://www.w3.org/2000/svg" viewBox="0 0 56 66.64"><defs><style>.cls-1,.cls-3{fill:none;stroke-linecap:round;stroke-miterlimit:10;stroke-width:2px;}.cls-1{stroke:#fff;}.cls-2{fill:#ec6726;}.cls-3{stroke:#ec6726;}</style></defs><g id="Calque_2" data-name="Calque 2"><g id="Calque_1-2" data-name="Calque 1"><g id="Groupe_356" data-name="Groupe 356"><circle id="Ellipse_14" data-name="Ellipse 14" class="cls-1" cx="14.64" cy="13.77" r="5.45"/><path id="Tracé_17" data-name="Tracé 17" class="cls-1" d="M45.16,42.77l9.35-9.4a1.69,1.69,0,0,0,0-2.39h0L24.34,1.48A1.7,1.7,0,0,0,23,1L4.93,2.67A1.7,1.7,0,0,0,3.41,4.13L1,22.39a1.71,1.71,0,0,0,.45,1.38L13,35.93"/><g id="Groupe_355" data-name="Groupe 355"><path id="Tracé_18" data-name="Tracé 18" class="cls-2" d="M32.64,46.8H18l.62-1.4H33.23Zm-1.2,2.82H18l.61-1.41h13.4Zm2.8,4.43A8.12,8.12,0,0,1,28.76,56a8.51,8.51,0,0,1-6-14.47,8.18,8.18,0,0,1,6-2.43,8.3,8.3,0,0,1,6.09,2.51L34.24,43a7.24,7.24,0,0,0-5.48-2.52,7.06,7.06,0,0,0-5,12,6.82,6.82,0,0,0,5,2A7.09,7.09,0,0,0,34.24,52Z"/></g><circle id="Ellipse_13" data-name="Ellipse 13" class="cls-3" cx="27.28" cy="47.51" r="18.14"/></g></g></g></svg>