<svg xmlns="http://www.w3.org/2000/svg" viewBox="0 0 64.98 64.99"><defs><style>.cls-1{fill:none;stroke:#fff;stroke-linecap:round;stroke-miterlimit:10;stroke-width:2px;}</style></defs><g id="Calque_2" data-name="Calque 2"><g id="Calque_1-2" data-name="Calque 1"><path class="cls-1" d="M48,64c-3.13,0-7.25-1.22-11.17-3.17a66.32,66.32,0,0,1-14.15-9.74A87.56,87.56,0,0,1,10.3,37.87a49.87,49.87,0,0,1-8-14.15A23.72,23.72,0,0,1,3.8,4.62,6.56,6.56,0,0,1,14,2.68c2.44,2.2,4.76,4.56,7,7s2.44,5.05.89,8.06a8.92,8.92,0,0,1-1.64,2.39,5.85,5.85,0,0,0-1.62,5.73,18.14,18.14,0,0,0,2.91,6.55A37.82,37.82,0,0,0,34.79,44.72a13.28,13.28,0,0,0,5.5,1.76,5.21,5.21,0,0,0,4.22-1.42,11.57,11.57,0,0,1,3.35-2.26,6.32,6.32,0,0,1,7.24,1c2.5,2.24,4.83,4.67,7.14,7.1a6.63,6.63,0,0,1-1.77,10.31A26.11,26.11,0,0,1,48,64Z"/></g></g></svg>