<svg width="16" height="16" viewBox="0 0 16 16" fill="none" xmlns="http://www.w3.org/2000/svg">
<path fill-rule="evenodd" clip-rule="evenodd" d="M8.00067 0C5.828 0 5.55533 0.00929496 4.702 0.0472901C3.85033 0.0854484 3.269 0.217372 2.76033 0.410935C2.23417 0.610858 1.78783 0.878292 1.34317 1.31352C0.898167 1.74859 0.624833 2.18529 0.419833 2.69994C0.2215 3.19779 0.0865 3.76674 0.0481666 4.5997C0.01 5.43461 0 5.70156 0 7.82733C0 9.9531 0.00966665 10.2191 0.0483333 11.054C0.0875 11.8873 0.222333 12.4561 0.42 12.9537C0.6245 13.4686 0.897833 13.9053 1.34267 14.3403C1.78717 14.7757 2.2335 15.0438 2.75933 15.2437C3.26833 15.4373 3.84983 15.5692 4.70133 15.6074C5.55467 15.6454 5.82717 15.6547 7.99967 15.6547C10.1725 15.6547 10.4443 15.6454 11.2977 15.6074C12.1493 15.5692 12.7313 15.4373 13.2403 15.2437C13.7663 15.0438 14.212 14.7757 14.6565 14.3403C15.1015 13.9053 15.3748 13.4686 15.5798 12.9539C15.7765 12.4561 15.9115 11.8871 15.9515 11.0541C15.9898 10.2192 15.9998 9.9531 15.9998 7.82733C15.9998 5.70156 15.9898 5.43478 15.9515 4.59986C15.9115 3.76658 15.7765 3.19779 15.5798 2.7001C15.3748 2.18529 15.1015 1.74859 14.6565 1.31352C14.2115 0.878129 13.7665 0.610695 13.2398 0.410935C12.7298 0.217372 12.1482 0.0854484 11.2965 0.0472901C10.4432 0.00929496 10.1715 0 7.99817 0H8.00067ZM7.28265 1.41068C7.422 1.41047 7.5719 1.41053 7.73368 1.4106L8.00031 1.41068C10.1363 1.41068 10.3895 1.41818 11.233 1.45569C12.013 1.49058 12.4363 1.6181 12.7183 1.72524C13.0916 1.86711 13.3578 2.0367 13.6376 2.31066C13.9176 2.58462 14.091 2.84553 14.2363 3.2108C14.3458 3.48639 14.4763 3.90059 14.5118 4.66376C14.5501 5.48889 14.5585 5.73675 14.5585 7.82568C14.5585 9.9146 14.5501 10.1625 14.5118 10.9876C14.4761 11.7508 14.3458 12.165 14.2363 12.4405C14.0913 12.8058 13.9176 13.0659 13.6376 13.3397C13.3576 13.6137 13.0918 13.7833 12.7183 13.9251C12.4366 14.0328 12.013 14.16 11.233 14.1948C10.3896 14.2324 10.1363 14.2405 8.00031 14.2405C5.86415 14.2405 5.61098 14.2324 4.76765 14.1948C3.98765 14.1596 3.56431 14.0321 3.28215 13.925C2.90881 13.7831 2.64215 13.6135 2.36215 13.3395C2.08215 13.0656 1.90881 12.8053 1.76348 12.4399C1.65398 12.1643 1.52348 11.7501 1.48798 10.9869C1.44965 10.1618 1.44198 9.91395 1.44198 7.82372C1.44198 5.73349 1.44965 5.48693 1.48798 4.6618C1.52365 3.89863 1.65398 3.48444 1.76348 3.20852C1.90848 2.84325 2.08215 2.58233 2.36215 2.30838C2.64215 2.03442 2.90881 1.86483 3.28215 1.72263C3.56415 1.61501 3.98765 1.48781 4.76765 1.45275C5.50565 1.42014 5.79165 1.41035 7.28265 1.40872V1.41068ZM11.3105 3.64903C11.3105 3.13031 11.7405 2.71007 12.2705 2.71007V2.70975C12.8005 2.70975 13.2305 3.13047 13.2305 3.64903C13.2305 4.1676 12.8005 4.58832 12.2705 4.58832C11.7405 4.58832 11.3105 4.1676 11.3105 3.64903ZM7.99959 3.80756C5.73084 3.80764 3.89143 5.60742 3.89143 7.82724C3.89143 10.0471 5.73093 11.8461 7.99976 11.8461C10.2686 11.8461 12.1074 10.0471 12.1074 7.82724C12.1074 5.60736 10.2684 3.80756 7.99959 3.80756ZM10.6659 7.82719C10.6659 6.38615 9.47194 5.21808 7.99927 5.21808C6.52644 5.21808 5.3326 6.38615 5.3326 7.82719C5.3326 9.26808 6.52644 10.4363 7.99927 10.4363C9.47194 10.4363 10.6659 9.26808 10.6659 7.82719Z" fill="#0E1C63"/>
</svg>
