<svg width="15" height="14" viewBox="0 0 15 14" fill="none" xmlns="http://www.w3.org/2000/svg">
<path fill-rule="evenodd" clip-rule="evenodd" d="M0 2.40099C0 1.56234 0.750375 0.878174 1.69938 0.878174C2.64838 0.878174 3.39876 1.56234 3.39876 2.40099C3.39876 3.23965 2.64838 3.92382 1.69938 3.92382C0.750375 3.92382 0 3.23965 0 2.40099ZM10.5271 4.80655C9.26916 4.80655 8.51878 5.27001 7.72427 6.28523V5.09345H4.85518V13.7669H7.74634V9.06603C7.74634 8.07289 8.25394 7.10181 9.40158 7.10181C10.5492 7.10181 11.2334 8.07289 11.2334 9.04396V13.7669H14.1245V8.84533C14.1245 5.4245 11.8072 4.80655 10.5271 4.80655ZM0.253816 5.09329H3.1229V13.7667H0.253816V5.09329Z" fill="#0E1C63"/>
</svg>
