<svg width="198" height="48" viewBox="0 0 198 48" fill="none" xmlns="http://www.w3.org/2000/svg">
<g clip-path="url(#clip0)">
<path d="M85.572 44.8661L87.1987 47.8729H86.2447L84.7117 44.895H83.0443V47.8729H82.2207V40.6855H85.1276C86.3996 40.6855 87.3618 41.4764 87.3618 42.7903C87.3618 43.9518 86.6075 44.7014 85.572 44.8661ZM83.0402 44.1454H85.0338C85.9675 44.1454 86.526 43.6429 86.526 42.7903C86.526 41.9377 85.9675 41.4434 85.0338 41.4434H83.0402V44.1454Z" fill="#242B58"/>
<path d="M90.595 42.7161C91.9975 42.7161 92.9842 43.6593 92.9842 45.1792V45.5911H88.9194C88.9806 46.6372 89.6533 47.3168 90.6562 47.3168C91.5287 47.3168 91.969 46.8555 92.2095 46.2995L92.8904 46.6496C92.5561 47.2963 91.9853 48.017 90.6644 48.017C89.1396 48.017 88.104 46.8679 88.104 45.3275C88.104 43.8364 89.1518 42.7161 90.595 42.7161ZM92.1688 44.9485C92.128 43.9641 91.5083 43.4163 90.595 43.4163C89.6614 43.4163 89.0295 44.0136 88.9194 44.9485H92.1688ZM91.5898 40.6855L90.807 42.02H90.0569L90.6358 40.6855H91.5898Z" fill="#242B58"/>
<path d="M94.8308 42.8603V43.7005H94.9327C95.1651 43.2269 95.6625 42.7573 96.6899 42.7573C97.7784 42.7573 98.6509 43.4864 98.6509 44.8332V47.8729H97.8803V44.8826C97.8803 43.8776 97.3422 43.4328 96.486 43.4328C95.532 43.4328 94.8511 44.0795 94.8511 45.3316V47.8688H94.0684V42.8603H94.8308Z" fill="#242B58"/>
<path d="M102.259 42.7163C103.763 42.7163 104.799 43.7831 104.799 45.3647C104.799 46.934 103.763 48.0131 102.259 48.0131C100.754 48.0131 99.7271 46.934 99.7271 45.3647C99.7311 43.7872 100.754 42.7163 102.259 42.7163ZM102.259 47.317C103.315 47.317 104.016 46.5262 104.016 45.3647C104.016 44.195 103.315 43.4124 102.259 43.4124C101.203 43.4124 100.502 44.2238 100.502 45.3647C100.502 46.5592 101.203 47.317 102.259 47.317Z" fill="#242B58"/>
<path d="M106.165 42.8601L107.71 47.1519H107.812L109.365 42.8601H110.217L108.317 47.8727H107.208L105.309 42.8601H106.165Z" fill="#242B58"/>
<path d="M113.267 42.7163C114.772 42.7163 115.807 43.7831 115.807 45.3647C115.807 46.934 114.772 48.0131 113.267 48.0131C111.763 48.0131 110.735 46.934 110.735 45.3647C110.735 43.7872 111.763 42.7163 113.267 42.7163ZM113.267 47.317C114.323 47.317 115.024 46.5262 115.024 45.3647C115.024 44.195 114.323 43.4124 113.267 43.4124C112.211 43.4124 111.51 44.2238 111.51 45.3647C111.51 46.5592 112.211 47.317 113.267 47.317Z" fill="#242B58"/>
<path d="M117.698 42.8603V43.7005H117.8C118.033 43.2269 118.53 42.7573 119.558 42.7573C120.646 42.7573 121.519 43.4864 121.519 44.8332V47.8729H120.748V44.8826C120.748 43.8776 120.21 43.4328 119.354 43.4328C118.4 43.4328 117.719 44.0795 117.719 45.3316V47.8688H116.936V42.8603H117.698Z" fill="#242B58"/>
<path d="M124.683 42.7163C125.861 42.7163 126.717 43.2929 127.08 44.265L126.366 44.5327C126.081 43.6389 125.421 43.363 124.691 43.363C123.998 43.363 123.5 43.6389 123.5 44.1414C123.5 44.6563 123.949 44.8416 124.711 44.9611L125.099 45.0311C126.175 45.2164 127.019 45.5048 127.019 46.4892C127.019 47.4118 126.216 48.009 124.997 48.009C123.737 48.009 122.82 47.4241 122.477 46.345L123.199 46.1102C123.423 47.004 124.173 47.3623 124.988 47.3623C125.812 47.3623 126.26 46.9916 126.26 46.5221C126.26 46.0072 125.792 45.8548 124.98 45.7107L124.585 45.6489C123.509 45.4553 122.734 45.0517 122.734 44.1703C122.73 43.3053 123.521 42.7163 124.683 42.7163Z" fill="#242B58"/>
<path d="M136.053 47.8729H135.291V46.9997H135.189C134.883 47.5228 134.345 48.0171 133.309 48.0171C132.009 48.0171 130.973 46.9791 130.973 45.3687C130.973 43.7459 132.009 42.7203 133.309 42.7203C134.345 42.7203 134.883 43.2145 135.168 43.6964H135.27V40.6897H136.053V47.8729ZM131.764 45.3687C131.764 46.5796 132.478 47.321 133.501 47.321C134.536 47.321 135.278 46.5714 135.278 45.3687C135.278 44.166 134.536 43.4081 133.501 43.4081C132.478 43.4081 131.764 44.1577 131.764 45.3687Z" fill="#242B58"/>
<path d="M141.296 47.873V47.0327H141.194C140.95 47.5064 140.452 47.9677 139.425 47.9677C138.336 47.9677 137.464 47.2469 137.464 45.9042V42.8645H138.238V45.8548C138.238 46.8598 138.777 47.3046 139.641 47.3046C140.587 47.3046 141.276 46.6579 141.276 45.4058V42.8686H142.05V47.8812H141.296V47.873Z" fill="#242B58"/>
<path d="M144.264 43.5192H144.366C144.558 43.0373 144.945 42.8396 145.606 42.8396H146.287V43.5274H145.483C144.75 43.5274 144.285 43.927 144.285 44.7919V47.8728H143.502V42.8602H144.264V43.5192Z" fill="#242B58"/>
<path d="M149.145 42.7163C150.445 42.7163 151.228 43.4742 151.228 44.6892V47.8731H150.486V47.1029H150.384C150.119 47.5353 149.601 48.0172 148.586 48.0172C147.551 48.0172 146.776 47.5024 146.776 46.5592C146.776 45.6036 147.587 45.1917 148.586 45.0599L150.466 44.8045V44.6522C150.466 43.8943 149.989 43.3877 149.124 43.3877C148.252 43.3877 147.791 43.8902 147.599 44.578L146.857 44.3226C147.143 43.4783 147.852 42.7163 149.145 42.7163ZM148.688 47.3788C149.695 47.3788 150.466 46.7733 150.466 45.6654V45.4183L148.676 45.6654C148.023 45.756 147.546 46.0031 147.546 46.5262C147.546 47.0617 147.987 47.3788 148.688 47.3788Z" fill="#242B58"/>
<path d="M153.401 40.6855V43.6923H153.503C153.788 43.2104 154.326 42.7161 155.354 42.7161C156.654 42.7161 157.702 43.7417 157.702 45.3645C157.702 46.975 156.654 48.0129 155.354 48.0129C154.326 48.0129 153.788 47.5187 153.482 46.9956H153.381V47.8688H152.618V40.6855H153.401ZM153.393 45.3686C153.393 46.5713 154.135 47.321 155.162 47.321C156.198 47.321 156.911 46.5796 156.911 45.3686C156.911 44.1577 156.202 43.4081 155.162 43.4081C154.135 43.4081 153.393 44.166 153.393 45.3686Z" fill="#242B58"/>
<path d="M159.61 47.8729H158.827V40.6855H159.61V47.8729Z" fill="#242B58"/>
<path d="M163.218 42.7163C164.621 42.7163 165.607 43.6595 165.607 45.1794V45.5912H161.542C161.604 46.6374 162.276 47.317 163.279 47.317C164.152 47.317 164.592 46.8557 164.833 46.2997L165.513 46.6498C165.179 47.2964 164.608 48.0172 163.287 48.0172C161.763 48.0172 160.727 46.8681 160.727 45.3276C160.731 43.8366 161.775 42.7163 163.218 42.7163ZM164.796 44.9487C164.755 43.9643 164.135 43.4165 163.222 43.4165C162.289 43.4165 161.657 44.0137 161.547 44.9487H164.796Z" fill="#242B58"/>
<path d="M167.458 42.8603V43.5193H167.56C167.793 43.0786 168.241 42.7615 168.983 42.7615C169.758 42.7615 170.235 43.161 170.447 43.6759H170.549C170.834 43.1198 171.299 42.7615 172.102 42.7615C173.076 42.7615 173.778 43.4205 173.778 44.4749V47.8729H173.007V44.5367C173.007 43.8694 172.591 43.437 171.89 43.437C171.156 43.437 170.63 43.9312 170.63 44.8456V47.877H169.847V44.5408C169.847 43.8736 169.44 43.4411 168.73 43.4411C168.009 43.4411 167.479 43.9353 167.479 44.8497V47.8812H166.696V42.8603H167.458Z" fill="#242B58"/>
<path d="M177.337 42.7163C178.739 42.7163 179.726 43.6595 179.726 45.1794V45.5912H175.661C175.722 46.6374 176.395 47.317 177.398 47.317C178.27 47.317 178.711 46.8557 178.951 46.2997L179.632 46.6498C179.298 47.2964 178.727 48.0172 177.406 48.0172C175.881 48.0172 174.846 46.8681 174.846 45.3276C174.846 43.8366 175.893 42.7163 177.337 42.7163ZM178.91 44.9487C178.87 43.9643 178.25 43.4165 177.337 43.4165C176.403 43.4165 175.771 44.0137 175.661 44.9487H178.91Z" fill="#242B58"/>
<path d="M181.577 42.8603V43.7005H181.679C181.911 43.2269 182.409 42.7573 183.436 42.7573C184.525 42.7573 185.397 43.4864 185.397 44.8332V47.8729H184.623V44.8826C184.623 43.8776 184.084 43.4328 183.228 43.4328C182.274 43.4328 181.593 44.0795 181.593 45.3316V47.8688H180.811V42.8603H181.577Z" fill="#242B58"/>
<path d="M186.058 42.8603H187.591V41.0645H188.365V42.8603H190V43.5193H188.365V46.9091C188.365 47.115 188.467 47.218 188.651 47.218H189.78V47.877H188.406C187.909 47.877 187.591 47.5598 187.591 47.0367V43.5234H186.058V42.8603Z" fill="#242B58"/>
<path d="M131.561 24.0043V23.9096C131.561 16.8211 136.816 10.8694 144.02 10.8694C148.505 10.8694 151.448 12.6405 153.715 15.19L150.364 18.5798C148.688 16.7387 146.694 15.6678 143.975 15.6678C139.988 15.6678 136.42 19.4695 136.42 23.8148V23.9096C136.42 28.3497 139.988 32.106 144.203 32.106C146.784 32.106 148.627 30.8251 150.351 28.984L153.719 32.2296C151.362 34.9686 148.598 36.9086 143.934 36.9086C136.816 36.9044 131.561 31.0928 131.561 24.0043Z" fill="#242B58"/>
<path d="M110.425 18.7034C115.673 18.7034 119.207 22.2085 119.207 27.5218V29.1528H106.051C106.234 31.3729 108.093 33.144 110.642 33.144C113.194 33.144 114.511 31.7889 115.412 30.6068L118.596 32.6579C117.577 33.976 115.746 36.8921 110.642 36.8921C105.101 36.8921 101.35 33.0039 101.35 27.6577C101.35 22.3156 105.105 18.7034 110.425 18.7034ZM114.543 26.0967C114.286 23.8395 112.758 22.4515 110.389 22.4515C107.8 22.4515 106.381 23.9096 106.088 26.0967H114.543Z" fill="#242B58"/>
<path d="M62.8835 19.0205H58.0034C58.0034 16.1579 56.1647 15.017 53.1599 15.017C50.1592 15.017 48.769 16.162 48.769 18.0196C48.769 19.8813 50.1592 20.738 53.3841 21.4177L54.2485 21.5948C59.8421 22.7398 63.4054 24.5974 63.4054 29.1775C63.4054 33.7576 59.5404 36.9003 53.4616 36.9003C47.3828 36.9003 43.1387 33.6835 43.1387 28.2467V27.8883H48.0188V28.2467C48.0188 31.2493 50.0818 32.7526 53.4616 32.7526C56.8414 32.7526 58.5293 31.3234 58.5293 29.3176C58.5293 27.2417 56.764 26.5291 53.3882 25.8124L52.5239 25.6353C47.0077 24.4903 43.8929 22.7398 43.8929 18.1597C43.8929 13.5795 47.5337 10.8652 53.164 10.8652C58.7943 10.8652 62.8835 13.5837 62.8835 19.0205Z" fill="#242B58"/>
<path d="M67.7354 44.413H72.8398L82.2169 19.0164H77.0799L72.8765 30.4008L68.0208 19.0164H62.8838L70.4874 36.8632L67.7354 44.413Z" fill="#242B58"/>
<path d="M158.118 17.5831C159.953 17.5831 161.44 16.0802 161.44 14.2262C161.44 12.3723 159.953 10.8694 158.118 10.8694C156.283 10.8694 154.795 12.3723 154.795 14.2262C154.795 16.0802 156.283 17.5831 158.118 17.5831Z" fill="#242B58"/>
<path d="M86.8114 36.5875V26.8547C86.8114 24.0662 88.2098 22.6864 90.7171 22.6864V22.6658V22.6864C93.2204 22.6864 94.6229 24.0621 94.6229 26.8547V36.5875H99.2625V26.6282C99.2625 22.1922 97.0772 18.9054 91.0107 18.7077C91.0107 18.7077 90.815 18.6994 90.7171 18.7035C90.6193 18.7035 90.4236 18.7077 90.4236 18.7077C84.357 18.9054 82.2207 22.1963 82.2207 26.6323V36.5875H86.8114Z" fill="#242B58"/>
<path d="M125.934 36.5876V26.8424C125.934 24.0499 127.263 22.8019 130.48 23.049L131.242 18.7654L130.888 18.7366C130.207 18.683 129.522 18.6748 128.841 18.7242C123.309 19.1485 121.291 22.3488 121.291 26.6118V36.5834H125.934V36.5876Z" fill="#242B58"/>
<path d="M160.507 19.0164H155.794V36.5872H160.507V19.0164Z" fill="#242B58"/>
<path d="M171.674 18.7034C176.921 18.7034 180.456 22.2085 180.456 27.5218V29.1528H167.299C167.483 31.3729 169.342 33.144 171.89 33.144C174.442 33.144 175.759 31.7889 176.66 30.6068L179.844 32.6579C178.825 33.976 176.994 36.8921 171.89 36.8921C166.349 36.8921 162.599 33.0039 162.599 27.6577C162.599 22.3156 166.354 18.7034 171.674 18.7034ZM175.792 26.0967C175.535 23.8395 174.006 22.4515 171.637 22.4515C169.048 22.4515 167.63 23.9096 167.336 26.0967H175.792Z" fill="#242B58"/>
<path d="M190 36.8672L189.425 31.8875C188.61 31.8875 188.222 31.5374 188.006 31.2368C187.533 30.5407 187.272 29.3668 187.272 27.8429V11.1946H182.531V28.0529C182.531 30.6231 183.089 32.7113 184.17 34.2353C184.773 35.1043 185.548 35.7592 186.453 36.237C187.358 36.6736 188.349 36.8878 189.425 36.8919V36.896C189.621 36.8919 189.812 36.8837 190 36.8672Z" fill="#242B58"/>
<path d="M33.2277 6.93171C32.343 5.53131 31.2137 4.25036 29.8316 3.15475C24.0994 -1.38419 15.8149 -1.01349 10.5026 4.02383C4.13843 10.0579 4.26074 20.1572 10.5556 26.043C10.5678 26.0554 10.5841 26.0678 10.5964 26.0801C12.7694 28.0983 16.1696 27.8924 18.1714 25.7053L32.9831 9.54716C33.6395 8.83049 33.7455 7.75548 33.2277 6.93171Z" fill="#242B58"/>
<path d="M15.7048 8.83862C12.0967 8.83862 8.7658 10.0331 6.07499 12.0431C5.09244 17.0062 6.61315 22.3525 10.5597 26.0388C10.5719 26.0512 10.5882 26.0635 10.6004 26.0759C12.7735 28.09 16.1737 27.8882 18.1755 25.7011L28.1886 14.7738C25.2205 11.1534 20.7277 8.83862 15.7048 8.83862Z" fill="#3F6BA9"/>
<path d="M20.226 31.974C15.0931 31.9246 10.535 29.6386 7.51397 25.491L0.468932 33.2055C-0.216002 33.951 -0.0366148 34.8984 0.277313 35.788C0.917401 37.5879 2.26281 38.9595 3.78352 40.2775C10.5065 46.1057 20.5766 45.7226 26.9367 39.4744C31.1646 35.3226 31.7313 30.1741 31.9107 26.8296C29.8722 30.1123 25.2937 32.217 20.226 31.974Z" fill="#EC6726"/>
<path d="M8.81445 24.1112C11.5338 27.7399 15.8432 30.0835 20.6989 30.0835C25.1713 30.0835 29.179 28.09 31.9106 24.9391C31.8454 21.3145 30.5937 17.7188 28.1802 14.7903L18.1793 25.7052C16.1775 27.8923 12.7814 28.0858 10.6124 26.0717C10.6002 26.0594 10.5839 26.047 10.5716 26.0347C9.92747 25.4292 9.34854 24.7825 8.83484 24.0988L8.81445 24.1112Z" fill="#FBBB16"/>
<path d="M8.81445 24.1116C9.32815 24.7953 9.90709 25.4461 10.5512 26.0474C10.5635 26.0598 10.5798 26.0721 10.592 26.0845C12.761 28.0986 16.1571 27.9009 18.1589 25.7179L28.1598 14.8072C28.1598 14.8072 28.1598 14.8071 28.1557 14.803C27.9478 14.5518 27.7317 14.3047 27.5074 14.0616C27.483 14.0369 27.4626 14.0081 27.4381 13.9834C27.2057 13.7321 26.9611 13.4891 26.7124 13.2544L26.7084 13.2502C26.692 13.2379 26.6798 13.2214 26.6635 13.209C26.0723 12.6612 25.4037 12.2658 24.6902 12.0105C24.5109 11.9487 24.3315 11.8951 24.1521 11.8498C23.7892 11.7592 23.4182 11.7057 23.0472 11.6892C21.3757 11.6109 19.6756 12.2576 18.4484 13.5921L8.81445 24.1116Z" fill="#87B726"/>
</g>
<defs>
<clipPath id="clip0">
<rect width="198" height="48" fill="white"/>
</clipPath>
</defs>
</svg>
