<svg width="15" height="12" viewBox="0 0 15 12" fill="none" xmlns="http://www.w3.org/2000/svg">
<path fill-rule="evenodd" clip-rule="evenodd" d="M15 1.42135C14.4488 1.66142 13.8546 1.82522 13.233 1.89802C13.8686 1.52275 14.3564 0.929944 14.5853 0.221869C13.991 0.569406 13.3325 0.821609 12.6307 0.956811C12.0708 0.367471 11.2705 0 10.3848 0C8.68639 0 7.3085 1.35722 7.3085 3.02903C7.3085 3.26737 7.33404 3.49791 7.38774 3.71891C4.83008 3.59237 2.56295 2.38769 1.0442 0.553806C0.779186 1.00274 0.627751 1.52275 0.627751 2.07829C0.627751 3.1287 1.17098 4.05605 1.99683 4.59945C1.49234 4.58385 1.01778 4.44692 0.602219 4.22071V4.25798C0.602219 5.727 1.66314 6.95074 3.07184 7.22808C2.813 7.30001 2.54182 7.33555 2.26008 7.33555C2.06198 7.33555 1.86829 7.31735 1.68163 7.28182C2.07255 8.4839 3.20919 9.36097 4.55626 9.38437C3.50238 10.1973 2.17556 10.6818 0.734284 10.6818C0.486001 10.6818 0.240359 10.6679 0 10.6402C1.36204 11.4982 2.9794 12 4.71738 12C10.3786 12 13.4733 7.38495 13.4733 3.38177C13.4733 3.24917 13.4707 3.1183 13.4645 2.98917C14.0659 2.5619 14.5888 2.02802 15 1.42135Z" fill="#0E1C63"/>
</svg>
