<svg width="22" height="16" viewBox="0 0 22 16" fill="none" xmlns="http://www.w3.org/2000/svg">
<path fill-rule="evenodd" clip-rule="evenodd" d="M4.56913 2.34554e-05H17.4309C19.9462 -0.00796299 21.9918 2.02457 22 4.53993V10.9289C21.9918 13.4442 19.9462 15.4768 17.4309 15.4688H4.56913C2.05377 15.4768 0.0081504 13.4442 0 10.9289V4.53993C0.0081504 2.02457 2.05377 -0.00796299 4.56913 2.34554e-05ZM8.32496 10.8968L14.3409 8.04368L14.3406 8.04505C14.4228 8.00533 14.4754 7.92255 14.4765 7.83129C14.4776 7.74003 14.4269 7.65601 14.3457 7.61433L8.33012 4.58521C8.2555 4.54686 8.16629 4.55014 8.09469 4.59387C8.02309 4.6376 7.97944 4.71547 7.97949 4.79937V10.6802C7.9795 10.7631 8.02212 10.8401 8.09231 10.8841C8.16251 10.9281 8.25039 10.9329 8.32496 10.8968Z" fill="#0E1C63"/>
</svg>
